<?xml version="1.0" encoding="UTF-8" standalone="no"?>
<!-- Created with Inkscape (http://www.inkscape.org/) -->

<svg
   width="96"
   height="96"
   viewBox="0 0 96 96"
   version="1.1"
   id="svg1"
   xmlns="http://www.w3.org/2000/svg"
   xmlns:svg="http://www.w3.org/2000/svg">
  <defs
     id="defs1" />
  <g
     id="layer1">
    <g
       id="g4"
       transform="matrix(1.0769079,0,0,1.0769079,-3.6914958,-3.6911838)">
      <path
         id="path1"
         style="fill:#ffffff;fill-opacity:1;stroke:none;stroke-width:12;stroke-linecap:round;stroke-linejoin:round;stroke-miterlimit:5;stroke-dasharray:none;stroke-opacity:1"
         d="m 30.365889,19.304566 a 6.7464818,6.7464818 0 0 0 -7.143122,6.735365 v 13.490382 c -29.8235986,0.942555 -53.543347,25.363508 -53.593062,55.219185 5.1e-5,30.565292 24.7767114,55.341952 55.341997,55.342002 28.712808,-5e-5 52.315858,-21.86617 55.071797,-49.85447 0.297446,-3.020757 -2.190571,-5.487532 -5.227154,-5.487532 h -9.756698 c -3.036582,0 -5.453246,2.477004 -5.929675,5.472792 -2.624304,16.50163 -16.917975,29.11795 -34.15827,29.1178 C 5.8681308,129.34025 -9.6190472,113.85307 -9.6188882,94.749498 -9.5643874,76.358632 4.8720067,61.234779 23.222767,60.306286 v 12.25237 a 5.8300518,5.8300518 0 0 0 8.892057,4.961867 l 35.77456,-22.04346 A 6.7960414,6.7960414 0 0 0 68.16941,44.089334 L 33.790068,20.478711 a 6.7464818,6.7464818 0 0 0 -3.424179,-1.174145 z"
         transform="matrix(0.39756341,0,0,0.39756336,38.120993,14.329118)" />
    </g>
  </g>
</svg>
